<?xml version="1.0" encoding="utf-8" standalone="no"?>
<!DOCTYPE svg PUBLIC "-//W3C//DTD SVG 1.1//EN"
  "http://www.w3.org/Graphics/SVG/1.1/DTD/svg11.dtd">
<!-- Created with matplotlib (https://matplotlib.org/) -->
<svg height="288pt" version="1.1" viewBox="0 0 432 288" width="432pt" xmlns="http://www.w3.org/2000/svg" xmlns:xlink="http://www.w3.org/1999/xlink">
 <metadata>
  <rdf:RDF xmlns:cc="http://creativecommons.org/ns#" xmlns:dc="http://purl.org/dc/elements/1.1/" xmlns:rdf="http://www.w3.org/1999/02/22-rdf-syntax-ns#">
   <cc:Work>
    <dc:type rdf:resource="http://purl.org/dc/dcmitype/StillImage"/>
    <dc:date>2021-10-29T19:22:50.707733</dc:date>
    <dc:format>image/svg+xml</dc:format>
    <dc:creator>
     <cc:Agent>
      <dc:title>Matplotlib v3.3.2, https://matplotlib.org/</dc:title>
     </cc:Agent>
    </dc:creator>
   </cc:Work>
  </rdf:RDF>
 </metadata>
 <defs>
  <style type="text/css">*{stroke-linecap:butt;stroke-linejoin:round;}</style>
 </defs>
 <g id="figure_1">
  <g id="patch_1">
   <path d="M 0 288 
L 432 288 
L 432 0 
L 0 0 
z
" style="fill:none;"/>
  </g>
  <g id="axes_1">
   <g id="patch_2">
    <path d="M 54 252 
L 388.8 252 
L 388.8 34.56 
L 54 34.56 
z
" style="fill:#ffffff;"/>
   </g>
   <g id="PathCollection_1">
    <defs>
     <path d="M 0 3 
C 0.795609 3 1.55874 2.683901 2.12132 2.12132 
C 2.683901 1.55874 3 0.795609 3 0 
C 3 -0.795609 2.683901 -1.55874 2.12132 -2.12132 
C 1.55874 -2.683901 0.795609 -3 0 -3 
C -0.795609 -3 -1.55874 -2.683901 -2.12132 -2.12132 
C -2.683901 -1.55874 -3 -0.795609 -3 0 
C -3 0.795609 -2.683901 1.55874 -2.12132 2.12132 
C -1.55874 2.683901 -0.795609 3 0 3 
z
" id="m4ae3ad37b2" style="stroke:#ffffff;stroke-width:0.48;"/>
    </defs>
    <g clip-path="url(#pc85b838b8d)">
     <use style="fill:#008000;stroke:#ffffff;stroke-width:0.48;" x="71.124426" xlink:href="#m4ae3ad37b2" y="242.109813"/>
     <use style="fill:#008000;stroke:#ffffff;stroke-width:0.48;" x="238.238489" xlink:href="#m4ae3ad37b2" y="237.217425"/>
     <use style="fill:#008000;stroke:#ffffff;stroke-width:0.48;" x="90.822281" xlink:href="#m4ae3ad37b2" y="241.958482"/>
     <use style="fill:#008000;stroke:#ffffff;stroke-width:0.48;" x="78.749402" xlink:href="#m4ae3ad37b2" y="242.052036"/>
     <use style="fill:#008000;stroke:#ffffff;stroke-width:0.48;" x="78.749402" xlink:href="#m4ae3ad37b2" y="242.072653"/>
     <use style="fill:#008000;stroke:#ffffff;stroke-width:0.48;" x="93.36394" xlink:href="#m4ae3ad37b2" y="241.894792"/>
     <use style="fill:#008000;stroke:#ffffff;stroke-width:0.48;" x="141.020042" xlink:href="#m4ae3ad37b2" y="241.117434"/>
     <use style="fill:#008000;stroke:#ffffff;stroke-width:0.48;" x="97.176428" xlink:href="#m4ae3ad37b2" y="241.896256"/>
     <use style="fill:#008000;stroke:#ffffff;stroke-width:0.48;" x="174.69702" xlink:href="#m4ae3ad37b2" y="240.166403"/>
     <use style="fill:#008000;stroke:#ffffff;stroke-width:0.48;" x="69.218182" xlink:href="#m4ae3ad37b2" y="242.116364"/>
     <use style="fill:#008000;stroke:#ffffff;stroke-width:0.48;" x="142.926286" xlink:href="#m4ae3ad37b2" y="241.113775"/>
     <use style="fill:#008000;stroke:#ffffff;stroke-width:0.48;" x="155.63458" xlink:href="#m4ae3ad37b2" y="240.677707"/>
     <use style="fill:#008000;stroke:#ffffff;stroke-width:0.48;" x="186.134485" xlink:href="#m4ae3ad37b2" y="239.669424"/>
     <use style="fill:#008000;stroke:#ffffff;stroke-width:0.48;" x="373.581818" xlink:href="#m4ae3ad37b2" y="227.367244"/>
     <use style="fill:#008000;stroke:#ffffff;stroke-width:0.48;" x="87.009793" xlink:href="#m4ae3ad37b2" y="242.006082"/>
     <use style="fill:#008000;stroke:#ffffff;stroke-width:0.48;" x="92.728525" xlink:href="#m4ae3ad37b2" y="241.905486"/>
     <use style="fill:#008000;stroke:#ffffff;stroke-width:0.48;" x="108.613893" xlink:href="#m4ae3ad37b2" y="241.721896"/>
     <use style="fill:#008000;stroke:#ffffff;stroke-width:0.48;" x="325.290302" xlink:href="#m4ae3ad37b2" y="230.792205"/>
     <use style="fill:#008000;stroke:#ffffff;stroke-width:0.48;" x="76.843158" xlink:href="#m4ae3ad37b2" y="242.070808"/>
     <use style="fill:#008000;stroke:#ffffff;stroke-width:0.48;" x="226.801025" xlink:href="#m4ae3ad37b2" y="237.951871"/>
     <use style="fill:#008000;stroke:#ffffff;stroke-width:0.48;" x="136.572139" xlink:href="#m4ae3ad37b2" y="240.950522"/>
     <use style="fill:#008000;stroke:#ffffff;stroke-width:0.48;" x="147.374189" xlink:href="#m4ae3ad37b2" y="240.831523"/>
     <use style="fill:#008000;stroke:#ffffff;stroke-width:0.48;" x="71.124426" xlink:href="#m4ae3ad37b2" y="242.103673"/>
     <use style="fill:#008000;stroke:#ffffff;stroke-width:0.48;" x="188.676143" xlink:href="#m4ae3ad37b2" y="239.578998"/>
     <use style="fill:#008000;stroke:#ffffff;stroke-width:0.48;" x="73.666085" xlink:href="#m4ae3ad37b2" y="242.093751"/>
     <use style="fill:#008000;stroke:#ffffff;stroke-width:0.48;" x="205.83234" xlink:href="#m4ae3ad37b2" y="238.904994"/>
     <use style="fill:#008000;stroke:#ffffff;stroke-width:0.48;" x="75.572329" xlink:href="#m4ae3ad37b2" y="242.092794"/>
     <use style="fill:#008000;stroke:#ffffff;stroke-width:0.48;" x="334.186107" xlink:href="#m4ae3ad37b2" y="230.763516"/>
     <use style="fill:#008000;stroke:#ffffff;stroke-width:0.48;" x="90.822281" xlink:href="#m4ae3ad37b2" y="241.96806"/>
     <use style="fill:#008000;stroke:#ffffff;stroke-width:0.48;" x="121.322186" xlink:href="#m4ae3ad37b2" y="241.496328"/>
     <use style="fill:#008000;stroke:#ffffff;stroke-width:0.48;" x="90.822281" xlink:href="#m4ae3ad37b2" y="241.972492"/>
     <use style="fill:#008000;stroke:#ffffff;stroke-width:0.48;" x="123.863845" xlink:href="#m4ae3ad37b2" y="241.515535"/>
     <use style="fill:#008000;stroke:#ffffff;stroke-width:0.48;" x="155.63458" xlink:href="#m4ae3ad37b2" y="240.708902"/>
     <use style="fill:#008000;stroke:#ffffff;stroke-width:0.48;" x="187.405314" xlink:href="#m4ae3ad37b2" y="239.505321"/>
     <use style="fill:#008000;stroke:#ffffff;stroke-width:0.48;" x="123.863845" xlink:href="#m4ae3ad37b2" y="241.455826"/>
     <use style="fill:#008000;stroke:#ffffff;stroke-width:0.48;" x="155.63458" xlink:href="#m4ae3ad37b2" y="240.662048"/>
     <use style="fill:#008000;stroke:#ffffff;stroke-width:0.48;" x="187.405314" xlink:href="#m4ae3ad37b2" y="239.565777"/>
     <use style="fill:#008000;stroke:#ffffff;stroke-width:0.48;" x="123.863845" xlink:href="#m4ae3ad37b2" y="241.446063"/>
     <use style="fill:#008000;stroke:#ffffff;stroke-width:0.48;" x="123.863845" xlink:href="#m4ae3ad37b2" y="241.326782"/>
     <use style="fill:#008000;stroke:#ffffff;stroke-width:0.48;" x="123.863845" xlink:href="#m4ae3ad37b2" y="241.162907"/>
     <use style="fill:#008000;stroke:#ffffff;stroke-width:0.48;" x="127.040919" xlink:href="#m4ae3ad37b2" y="241.334034"/>
     <use style="fill:#008000;stroke:#ffffff;stroke-width:0.48;" x="262.384247" xlink:href="#m4ae3ad37b2" y="236.011189"/>
     <use style="fill:#008000;stroke:#ffffff;stroke-width:0.48;" x="262.384247" xlink:href="#m4ae3ad37b2" y="235.867796"/>
     <use style="fill:#008000;stroke:#ffffff;stroke-width:0.48;" x="341.175669" xlink:href="#m4ae3ad37b2" y="229.495789"/>
     <use style="fill:#008000;stroke:#ffffff;stroke-width:0.48;" x="128.311748" xlink:href="#m4ae3ad37b2" y="241.327317"/>
     <use style="fill:#008000;stroke:#ffffff;stroke-width:0.48;" x="139.113798" xlink:href="#m4ae3ad37b2" y="241.155494"/>
     <use style="fill:#008000;stroke:#ffffff;stroke-width:0.48;" x="146.738774" xlink:href="#m4ae3ad37b2" y="240.93136"/>
     <use style="fill:#008000;stroke:#ffffff;stroke-width:0.48;" x="151.822091" xlink:href="#m4ae3ad37b2" y="240.878074"/>
     <use style="fill:#008000;stroke:#ffffff;stroke-width:0.48;" x="156.905409" xlink:href="#m4ae3ad37b2" y="240.690561"/>
     <use style="fill:#008000;stroke:#ffffff;stroke-width:0.48;" x="203.926096" xlink:href="#m4ae3ad37b2" y="239.107713"/>
     <use style="fill:#008000;stroke:#ffffff;stroke-width:0.48;" x="228.071854" xlink:href="#m4ae3ad37b2" y="237.913691"/>
     <use style="fill:#008000;stroke:#ffffff;stroke-width:0.48;" x="250.311368" xlink:href="#m4ae3ad37b2" y="236.346965"/>
     <use style="fill:#008000;stroke:#ffffff;stroke-width:0.48;" x="339.269425" xlink:href="#m4ae3ad37b2" y="228.816311"/>
     <use style="fill:#008000;stroke:#ffffff;stroke-width:0.48;" x="108.613893" xlink:href="#m4ae3ad37b2" y="241.721666"/>
     <use style="fill:#008000;stroke:#ffffff;stroke-width:0.48;" x="184.228241" xlink:href="#m4ae3ad37b2" y="239.824853"/>
     <use style="fill:#008000;stroke:#ffffff;stroke-width:0.48;" x="123.22843" xlink:href="#m4ae3ad37b2" y="241.442105"/>
     <use style="fill:#008000;stroke:#ffffff;stroke-width:0.48;" x="123.863845" xlink:href="#m4ae3ad37b2" y="241.539627"/>
     <use style="fill:#008000;stroke:#ffffff;stroke-width:0.48;" x="314.488252" xlink:href="#m4ae3ad37b2" y="232.259614"/>
     <use style="fill:#008000;stroke:#ffffff;stroke-width:0.48;" x="171.519947" xlink:href="#m4ae3ad37b2" y="240.223728"/>
     <use style="fill:#008000;stroke:#ffffff;stroke-width:0.48;" x="104.801404" xlink:href="#m4ae3ad37b2" y="241.696353"/>
     <use style="fill:#008000;stroke:#ffffff;stroke-width:0.48;" x="87.009793" xlink:href="#m4ae3ad37b2" y="242.005099"/>
     <use style="fill:#008000;stroke:#ffffff;stroke-width:0.48;" x="203.290681" xlink:href="#m4ae3ad37b2" y="238.768927"/>
     <use style="fill:#008000;stroke:#ffffff;stroke-width:0.48;" x="203.290681" xlink:href="#m4ae3ad37b2" y="238.704563"/>
     <use style="fill:#008000;stroke:#ffffff;stroke-width:0.48;" x="161.353312" xlink:href="#m4ae3ad37b2" y="240.551811"/>
     <use style="fill:#008000;stroke:#ffffff;stroke-width:0.48;" x="70.489011" xlink:href="#m4ae3ad37b2" y="242.113956"/>
     <use style="fill:#008000;stroke:#ffffff;stroke-width:0.48;" x="74.301499" xlink:href="#m4ae3ad37b2" y="242.088802"/>
    </g>
   </g>
   <g id="PathCollection_2">
    <defs>
     <path d="M 0 3 
C 0.795609 3 1.55874 2.683901 2.12132 2.12132 
C 2.683901 1.55874 3 0.795609 3 0 
C 3 -0.795609 2.683901 -1.55874 2.12132 -2.12132 
C 1.55874 -2.683901 0.795609 -3 0 -3 
C -0.795609 -3 -1.55874 -2.683901 -2.12132 -2.12132 
C -2.683901 -1.55874 -3 -0.795609 -3 0 
C -3 0.795609 -2.683901 1.55874 -2.12132 2.12132 
C -1.55874 2.683901 -0.795609 3 0 3 
z
" id="m7c7a793d19" style="stroke:#ffffff;stroke-width:0.48;"/>
    </defs>
    <g clip-path="url(#pc85b838b8d)">
     <use style="fill:#ffa500;stroke:#ffffff;stroke-width:0.48;" x="71.124426" xlink:href="#m7c7a793d19" y="241.999238"/>
     <use style="fill:#ffa500;stroke:#ffffff;stroke-width:0.48;" x="238.238489" xlink:href="#m7c7a793d19" y="218.23551"/>
     <use style="fill:#ffa500;stroke:#ffffff;stroke-width:0.48;" x="90.822281" xlink:href="#m7c7a793d19" y="241.166213"/>
     <use style="fill:#ffa500;stroke:#ffffff;stroke-width:0.48;" x="78.749402" xlink:href="#m7c7a793d19" y="241.727623"/>
     <use style="fill:#ffa500;stroke:#ffffff;stroke-width:0.48;" x="78.749402" xlink:href="#m7c7a793d19" y="241.731264"/>
     <use style="fill:#ffa500;stroke:#ffffff;stroke-width:0.48;" x="93.36394" xlink:href="#m7c7a793d19" y="240.908419"/>
     <use style="fill:#ffa500;stroke:#ffffff;stroke-width:0.48;" x="141.020042" xlink:href="#m7c7a793d19" y="236.985567"/>
     <use style="fill:#ffa500;stroke:#ffffff;stroke-width:0.48;" x="97.176428" xlink:href="#m7c7a793d19" y="240.5898"/>
     <use style="fill:#ffa500;stroke:#ffffff;stroke-width:0.48;" x="174.69702" xlink:href="#m7c7a793d19" y="231.703704"/>
     <use style="fill:#ffa500;stroke:#ffffff;stroke-width:0.48;" x="69.218182" xlink:href="#m7c7a793d19" y="242.038754"/>
     <use style="fill:#ffa500;stroke:#ffffff;stroke-width:0.48;" x="142.926286" xlink:href="#m7c7a793d19" y="236.958702"/>
     <use style="fill:#ffa500;stroke:#ffffff;stroke-width:0.48;" x="155.63458" xlink:href="#m7c7a793d19" y="234.973767"/>
     <use style="fill:#ffa500;stroke:#ffffff;stroke-width:0.48;" x="186.134485" xlink:href="#m7c7a793d19" y="229.279931"/>
     <use style="fill:#ffa500;stroke:#ffffff;stroke-width:0.48;" x="373.581818" xlink:href="#m7c7a793d19" y="170.756351"/>
     <use style="fill:#ffa500;stroke:#ffffff;stroke-width:0.48;" x="87.009793" xlink:href="#m7c7a793d19" y="241.331063"/>
     <use style="fill:#ffa500;stroke:#ffffff;stroke-width:0.48;" x="92.728525" xlink:href="#m7c7a793d19" y="241.166437"/>
     <use style="fill:#ffa500;stroke:#ffffff;stroke-width:0.48;" x="108.613893" xlink:href="#m7c7a793d19" y="240.038111"/>
     <use style="fill:#ffa500;stroke:#ffffff;stroke-width:0.48;" x="325.290302" xlink:href="#m7c7a793d19" y="188.605067"/>
     <use style="fill:#ffa500;stroke:#ffffff;stroke-width:0.48;" x="76.843158" xlink:href="#m7c7a793d19" y="241.802192"/>
     <use style="fill:#ffa500;stroke:#ffffff;stroke-width:0.48;" x="226.801025" xlink:href="#m7c7a793d19" y="220.10965"/>
     <use style="fill:#ffa500;stroke:#ffffff;stroke-width:0.48;" x="136.572139" xlink:href="#m7c7a793d19" y="237.663751"/>
     <use style="fill:#ffa500;stroke:#ffffff;stroke-width:0.48;" x="147.374189" xlink:href="#m7c7a793d19" y="236.025567"/>
     <use style="fill:#ffa500;stroke:#ffffff;stroke-width:0.48;" x="71.124426" xlink:href="#m7c7a793d19" y="242.0024"/>
     <use style="fill:#ffa500;stroke:#ffffff;stroke-width:0.48;" x="188.676143" xlink:href="#m7c7a793d19" y="228.13234"/>
     <use style="fill:#ffa500;stroke:#ffffff;stroke-width:0.48;" x="73.666085" xlink:href="#m7c7a793d19" y="241.944908"/>
     <use style="fill:#ffa500;stroke:#ffffff;stroke-width:0.48;" x="205.83234" xlink:href="#m7c7a793d19" y="226.069479"/>
     <use style="fill:#ffa500;stroke:#ffffff;stroke-width:0.48;" x="75.572329" xlink:href="#m7c7a793d19" y="241.900846"/>
     <use style="fill:#ffa500;stroke:#ffffff;stroke-width:0.48;" x="334.186107" xlink:href="#m7c7a793d19" y="185.971549"/>
     <use style="fill:#ffa500;stroke:#ffffff;stroke-width:0.48;" x="90.822281" xlink:href="#m7c7a793d19" y="241.255398"/>
     <use style="fill:#ffa500;stroke:#ffffff;stroke-width:0.48;" x="121.322186" xlink:href="#m7c7a793d19" y="239.379112"/>
     <use style="fill:#ffa500;stroke:#ffffff;stroke-width:0.48;" x="90.822281" xlink:href="#m7c7a793d19" y="241.26204"/>
     <use style="fill:#ffa500;stroke:#ffffff;stroke-width:0.48;" x="123.863845" xlink:href="#m7c7a793d19" y="238.580533"/>
     <use style="fill:#ffa500;stroke:#ffffff;stroke-width:0.48;" x="155.63458" xlink:href="#m7c7a793d19" y="235.094448"/>
     <use style="fill:#ffa500;stroke:#ffffff;stroke-width:0.48;" x="187.405314" xlink:href="#m7c7a793d19" y="229.813306"/>
     <use style="fill:#ffa500;stroke:#ffffff;stroke-width:0.48;" x="123.863845" xlink:href="#m7c7a793d19" y="238.787037"/>
     <use style="fill:#ffa500;stroke:#ffffff;stroke-width:0.48;" x="155.63458" xlink:href="#m7c7a793d19" y="234.788028"/>
     <use style="fill:#ffa500;stroke:#ffffff;stroke-width:0.48;" x="187.405314" xlink:href="#m7c7a793d19" y="229.30297"/>
     <use style="fill:#ffa500;stroke:#ffffff;stroke-width:0.48;" x="123.863845" xlink:href="#m7c7a793d19" y="238.584373"/>
     <use style="fill:#ffa500;stroke:#ffffff;stroke-width:0.48;" x="123.863845" xlink:href="#m7c7a793d19" y="238.658799"/>
     <use style="fill:#ffa500;stroke:#ffffff;stroke-width:0.48;" x="123.863845" xlink:href="#m7c7a793d19" y="238.866992"/>
     <use style="fill:#ffa500;stroke:#ffffff;stroke-width:0.48;" x="127.040919" xlink:href="#m7c7a793d19" y="238.421849"/>
     <use style="fill:#ffa500;stroke:#ffffff;stroke-width:0.48;" x="262.384247" xlink:href="#m7c7a793d19" y="209.119435"/>
     <use style="fill:#ffa500;stroke:#ffffff;stroke-width:0.48;" x="262.384247" xlink:href="#m7c7a793d19" y="209.812093"/>
     <use style="fill:#ffa500;stroke:#ffffff;stroke-width:0.48;" x="341.175669" xlink:href="#m7c7a793d19" y="181.894438"/>
     <use style="fill:#ffa500;stroke:#ffffff;stroke-width:0.48;" x="128.311748" xlink:href="#m7c7a793d19" y="238.542884"/>
     <use style="fill:#ffa500;stroke:#ffffff;stroke-width:0.48;" x="139.113798" xlink:href="#m7c7a793d19" y="237.269575"/>
     <use style="fill:#ffa500;stroke:#ffffff;stroke-width:0.48;" x="146.738774" xlink:href="#m7c7a793d19" y="236.22815"/>
     <use style="fill:#ffa500;stroke:#ffffff;stroke-width:0.48;" x="151.822091" xlink:href="#m7c7a793d19" y="235.329192"/>
     <use style="fill:#ffa500;stroke:#ffffff;stroke-width:0.48;" x="156.905409" xlink:href="#m7c7a793d19" y="234.98451"/>
     <use style="fill:#ffa500;stroke:#ffffff;stroke-width:0.48;" x="203.926096" xlink:href="#m7c7a793d19" y="224.773213"/>
     <use style="fill:#ffa500;stroke:#ffffff;stroke-width:0.48;" x="228.071854" xlink:href="#m7c7a793d19" y="220.793321"/>
     <use style="fill:#ffa500;stroke:#ffffff;stroke-width:0.48;" x="250.311368" xlink:href="#m7c7a793d19" y="214.59725"/>
     <use style="fill:#ffa500;stroke:#ffffff;stroke-width:0.48;" x="339.269425" xlink:href="#m7c7a793d19" y="186.224267"/>
     <use style="fill:#ffa500;stroke:#ffffff;stroke-width:0.48;" x="108.613893" xlink:href="#m7c7a793d19" y="239.562727"/>
     <use style="fill:#ffa500;stroke:#ffffff;stroke-width:0.48;" x="184.228241" xlink:href="#m7c7a793d19" y="230.259007"/>
     <use style="fill:#ffa500;stroke:#ffffff;stroke-width:0.48;" x="123.22843" xlink:href="#m7c7a793d19" y="238.924779"/>
     <use style="fill:#ffa500;stroke:#ffffff;stroke-width:0.48;" x="123.863845" xlink:href="#m7c7a793d19" y="238.72684"/>
     <use style="fill:#ffa500;stroke:#ffffff;stroke-width:0.48;" x="314.488252" xlink:href="#m7c7a793d19" y="193.122664"/>
     <use style="fill:#ffa500;stroke:#ffffff;stroke-width:0.48;" x="171.519947" xlink:href="#m7c7a793d19" y="232.434242"/>
     <use style="fill:#ffa500;stroke:#ffffff;stroke-width:0.48;" x="104.801404" xlink:href="#m7c7a793d19" y="240.443535"/>
     <use style="fill:#ffa500;stroke:#ffffff;stroke-width:0.48;" x="87.009793" xlink:href="#m7c7a793d19" y="241.2822"/>
     <use style="fill:#ffa500;stroke:#ffffff;stroke-width:0.48;" x="203.290681" xlink:href="#m7c7a793d19" y="226.327371"/>
     <use style="fill:#ffa500;stroke:#ffffff;stroke-width:0.48;" x="203.290681" xlink:href="#m7c7a793d19" y="226.207412"/>
     <use style="fill:#ffa500;stroke:#ffffff;stroke-width:0.48;" x="161.353312" xlink:href="#m7c7a793d19" y="234.717618"/>
     <use style="fill:#ffa500;stroke:#ffffff;stroke-width:0.48;" x="70.489011" xlink:href="#m7c7a793d19" y="241.983903"/>
     <use style="fill:#ffa500;stroke:#ffffff;stroke-width:0.48;" x="74.301499" xlink:href="#m7c7a793d19" y="241.93164"/>
    </g>
   </g>
   <g id="PathCollection_3">
    <defs>
     <path d="M 0 3 
C 0.795609 3 1.55874 2.683901 2.12132 2.12132 
C 2.683901 1.55874 3 0.795609 3 0 
C 3 -0.795609 2.683901 -1.55874 2.12132 -2.12132 
C 1.55874 -2.683901 0.795609 -3 0 -3 
C -0.795609 -3 -1.55874 -2.683901 -2.12132 -2.12132 
C -2.683901 -1.55874 -3 -0.795609 -3 0 
C -3 0.795609 -2.683901 1.55874 -2.12132 2.12132 
C -1.55874 2.683901 -0.795609 3 0 3 
z
" id="m66e5d9d51f" style="stroke:#ffffff;stroke-width:0.48;"/>
    </defs>
    <g clip-path="url(#pc85b838b8d)">
     <use style="fill:#0000ff;stroke:#ffffff;stroke-width:0.48;" x="71.124426" xlink:href="#m66e5d9d51f" y="241.972267"/>
     <use style="fill:#0000ff;stroke:#ffffff;stroke-width:0.48;" x="238.238489" xlink:href="#m66e5d9d51f" y="198.757883"/>
     <use style="fill:#0000ff;stroke:#ffffff;stroke-width:0.48;" x="90.822281" xlink:href="#m66e5d9d51f" y="240.505897"/>
     <use style="fill:#0000ff;stroke:#ffffff;stroke-width:0.48;" x="78.749402" xlink:href="#m66e5d9d51f" y="241.477042"/>
     <use style="fill:#0000ff;stroke:#ffffff;stroke-width:0.48;" x="78.749402" xlink:href="#m66e5d9d51f" y="241.38418"/>
     <use style="fill:#0000ff;stroke:#ffffff;stroke-width:0.48;" x="93.36394" xlink:href="#m66e5d9d51f" y="239.722255"/>
     <use style="fill:#0000ff;stroke:#ffffff;stroke-width:0.48;" x="141.020042" xlink:href="#m66e5d9d51f" y="231.406107"/>
     <use style="fill:#0000ff;stroke:#ffffff;stroke-width:0.48;" x="97.176428" xlink:href="#m66e5d9d51f" y="239.64166"/>
     <use style="fill:#0000ff;stroke:#ffffff;stroke-width:0.48;" x="174.69702" xlink:href="#m66e5d9d51f" y="219.446539"/>
     <use style="fill:#0000ff;stroke:#ffffff;stroke-width:0.48;" x="69.218182" xlink:href="#m66e5d9d51f" y="241.992233"/>
     <use style="fill:#0000ff;stroke:#ffffff;stroke-width:0.48;" x="142.926286" xlink:href="#m66e5d9d51f" y="228.374437"/>
     <use style="fill:#0000ff;stroke:#ffffff;stroke-width:0.48;" x="155.63458" xlink:href="#m66e5d9d51f" y="223.878217"/>
     <use style="fill:#0000ff;stroke:#ffffff;stroke-width:0.48;" x="186.134485" xlink:href="#m66e5d9d51f" y="210.30718"/>
     <use style="fill:#0000ff;stroke:#ffffff;stroke-width:0.48;" x="373.581818" xlink:href="#m66e5d9d51f" y="44.443636"/>
     <use style="fill:#0000ff;stroke:#ffffff;stroke-width:0.48;" x="87.009793" xlink:href="#m66e5d9d51f" y="241.097072"/>
     <use style="fill:#0000ff;stroke:#ffffff;stroke-width:0.48;" x="92.728525" xlink:href="#m66e5d9d51f" y="240.718406"/>
     <use style="fill:#0000ff;stroke:#ffffff;stroke-width:0.48;" x="108.613893" xlink:href="#m66e5d9d51f" y="237.901082"/>
     <use style="fill:#0000ff;stroke:#ffffff;stroke-width:0.48;" x="325.290302" xlink:href="#m66e5d9d51f" y="129.484292"/>
     <use style="fill:#0000ff;stroke:#ffffff;stroke-width:0.48;" x="76.843158" xlink:href="#m66e5d9d51f" y="241.600617"/>
     <use style="fill:#0000ff;stroke:#ffffff;stroke-width:0.48;" x="226.801025" xlink:href="#m66e5d9d51f" y="197.526838"/>
     <use style="fill:#0000ff;stroke:#ffffff;stroke-width:0.48;" x="136.572139" xlink:href="#m66e5d9d51f" y="231.777545"/>
     <use style="fill:#0000ff;stroke:#ffffff;stroke-width:0.48;" x="147.374189" xlink:href="#m66e5d9d51f" y="231.981897"/>
     <use style="fill:#0000ff;stroke:#ffffff;stroke-width:0.48;" x="71.124426" xlink:href="#m66e5d9d51f" y="241.923072"/>
     <use style="fill:#0000ff;stroke:#ffffff;stroke-width:0.48;" x="188.676143" xlink:href="#m66e5d9d51f" y="208.631974"/>
     <use style="fill:#0000ff;stroke:#ffffff;stroke-width:0.48;" x="73.666085" xlink:href="#m66e5d9d51f" y="241.777247"/>
     <use style="fill:#0000ff;stroke:#ffffff;stroke-width:0.48;" x="205.83234" xlink:href="#m66e5d9d51f" y="208.779029"/>
     <use style="fill:#0000ff;stroke:#ffffff;stroke-width:0.48;" x="75.572329" xlink:href="#m66e5d9d51f" y="241.760048"/>
     <use style="fill:#0000ff;stroke:#ffffff;stroke-width:0.48;" x="334.186107" xlink:href="#m66e5d9d51f" y="82.246412"/>
     <use style="fill:#0000ff;stroke:#ffffff;stroke-width:0.48;" x="90.822281" xlink:href="#m66e5d9d51f" y="240.483267"/>
     <use style="fill:#0000ff;stroke:#ffffff;stroke-width:0.48;" x="121.322186" xlink:href="#m66e5d9d51f" y="234.916402"/>
     <use style="fill:#0000ff;stroke:#ffffff;stroke-width:0.48;" x="90.822281" xlink:href="#m66e5d9d51f" y="240.47955"/>
     <use style="fill:#0000ff;stroke:#ffffff;stroke-width:0.48;" x="123.863845" xlink:href="#m66e5d9d51f" y="235.601571"/>
     <use style="fill:#0000ff;stroke:#ffffff;stroke-width:0.48;" x="155.63458" xlink:href="#m66e5d9d51f" y="226.095486"/>
     <use style="fill:#0000ff;stroke:#ffffff;stroke-width:0.48;" x="187.405314" xlink:href="#m66e5d9d51f" y="212.325924"/>
     <use style="fill:#0000ff;stroke:#ffffff;stroke-width:0.48;" x="123.863845" xlink:href="#m66e5d9d51f" y="235.208198"/>
     <use style="fill:#0000ff;stroke:#ffffff;stroke-width:0.48;" x="155.63458" xlink:href="#m66e5d9d51f" y="227.240612"/>
     <use style="fill:#0000ff;stroke:#ffffff;stroke-width:0.48;" x="187.405314" xlink:href="#m66e5d9d51f" y="211.094471"/>
     <use style="fill:#0000ff;stroke:#ffffff;stroke-width:0.48;" x="123.863845" xlink:href="#m66e5d9d51f" y="235.379831"/>
     <use style="fill:#0000ff;stroke:#ffffff;stroke-width:0.48;" x="123.863845" xlink:href="#m66e5d9d51f" y="233.343971"/>
     <use style="fill:#0000ff;stroke:#ffffff;stroke-width:0.48;" x="123.863845" xlink:href="#m66e5d9d51f" y="235.695142"/>
     <use style="fill:#0000ff;stroke:#ffffff;stroke-width:0.48;" x="127.040919" xlink:href="#m66e5d9d51f" y="235.628314"/>
     <use style="fill:#0000ff;stroke:#ffffff;stroke-width:0.48;" x="262.384247" xlink:href="#m66e5d9d51f" y="174.03024"/>
     <use style="fill:#0000ff;stroke:#ffffff;stroke-width:0.48;" x="262.384247" xlink:href="#m66e5d9d51f" y="172.365927"/>
     <use style="fill:#0000ff;stroke:#ffffff;stroke-width:0.48;" x="341.175669" xlink:href="#m66e5d9d51f" y="100.92109"/>
     <use style="fill:#0000ff;stroke:#ffffff;stroke-width:0.48;" x="128.311748" xlink:href="#m66e5d9d51f" y="236.584759"/>
     <use style="fill:#0000ff;stroke:#ffffff;stroke-width:0.48;" x="139.113798" xlink:href="#m66e5d9d51f" y="233.681804"/>
     <use style="fill:#0000ff;stroke:#ffffff;stroke-width:0.48;" x="146.738774" xlink:href="#m66e5d9d51f" y="230.249503"/>
     <use style="fill:#0000ff;stroke:#ffffff;stroke-width:0.48;" x="151.822091" xlink:href="#m66e5d9d51f" y="228.435574"/>
     <use style="fill:#0000ff;stroke:#ffffff;stroke-width:0.48;" x="156.905409" xlink:href="#m66e5d9d51f" y="229.092204"/>
     <use style="fill:#0000ff;stroke:#ffffff;stroke-width:0.48;" x="203.926096" xlink:href="#m66e5d9d51f" y="212.954586"/>
     <use style="fill:#0000ff;stroke:#ffffff;stroke-width:0.48;" x="228.071854" xlink:href="#m66e5d9d51f" y="191.339072"/>
     <use style="fill:#0000ff;stroke:#ffffff;stroke-width:0.48;" x="250.311368" xlink:href="#m66e5d9d51f" y="177.350289"/>
     <use style="fill:#0000ff;stroke:#ffffff;stroke-width:0.48;" x="339.269425" xlink:href="#m66e5d9d51f" y="102.729327"/>
     <use style="fill:#0000ff;stroke:#ffffff;stroke-width:0.48;" x="108.613893" xlink:href="#m66e5d9d51f" y="238.668344"/>
     <use style="fill:#0000ff;stroke:#ffffff;stroke-width:0.48;" x="184.228241" xlink:href="#m66e5d9d51f" y="207.822352"/>
     <use style="fill:#0000ff;stroke:#ffffff;stroke-width:0.48;" x="123.22843" xlink:href="#m66e5d9d51f" y="236.675838"/>
     <use style="fill:#0000ff;stroke:#ffffff;stroke-width:0.48;" x="123.863845" xlink:href="#m66e5d9d51f" y="234.782268"/>
     <use style="fill:#0000ff;stroke:#ffffff;stroke-width:0.48;" x="314.488252" xlink:href="#m66e5d9d51f" y="123.59976"/>
     <use style="fill:#0000ff;stroke:#ffffff;stroke-width:0.48;" x="171.519947" xlink:href="#m66e5d9d51f" y="222.20764"/>
     <use style="fill:#0000ff;stroke:#ffffff;stroke-width:0.48;" x="104.801404" xlink:href="#m66e5d9d51f" y="239.031081"/>
     <use style="fill:#0000ff;stroke:#ffffff;stroke-width:0.48;" x="87.009793" xlink:href="#m66e5d9d51f" y="240.684406"/>
     <use style="fill:#0000ff;stroke:#ffffff;stroke-width:0.48;" x="203.290681" xlink:href="#m66e5d9d51f" y="201.358313"/>
     <use style="fill:#0000ff;stroke:#ffffff;stroke-width:0.48;" x="203.290681" xlink:href="#m66e5d9d51f" y="205.448496"/>
     <use style="fill:#0000ff;stroke:#ffffff;stroke-width:0.48;" x="161.353312" xlink:href="#m66e5d9d51f" y="223.612292"/>
     <use style="fill:#0000ff;stroke:#ffffff;stroke-width:0.48;" x="70.489011" xlink:href="#m66e5d9d51f" y="241.913765"/>
     <use style="fill:#0000ff;stroke:#ffffff;stroke-width:0.48;" x="74.301499" xlink:href="#m66e5d9d51f" y="241.825402"/>
    </g>
   </g>
   <g id="matplotlib.axis_1">
    <g id="xtick_1">
     <g id="line2d_1">
      <defs>
       <path d="M 0 0 
L 0 3.5 
" id="m5654287491" style="stroke:#000000;stroke-width:0.8;"/>
      </defs>
      <g>
       <use style="stroke:#000000;stroke-width:0.8;" x="60.322376" xlink:href="#m5654287491" y="252"/>
      </g>
     </g>
     <g id="text_1">
      <!-- 0 -->
      <g transform="translate(57.141126 266.598437)scale(0.1 -0.1)">
       <defs>
        <path d="M 31.78125 66.40625 
Q 24.171875 66.40625 20.328125 58.90625 
Q 16.5 51.421875 16.5 36.375 
Q 16.5 21.390625 20.328125 13.890625 
Q 24.171875 6.390625 31.78125 6.390625 
Q 39.453125 6.390625 43.28125 13.890625 
Q 47.125 21.390625 47.125 36.375 
Q 47.125 51.421875 43.28125 58.90625 
Q 39.453125 66.40625 31.78125 66.40625 
z
M 31.78125 74.21875 
Q 44.046875 74.21875 50.515625 64.515625 
Q 56.984375 54.828125 56.984375 36.375 
Q 56.984375 17.96875 50.515625 8.265625 
Q 44.046875 -1.421875 31.78125 -1.421875 
Q 19.53125 -1.421875 13.0625 8.265625 
Q 6.59375 17.96875 6.59375 36.375 
Q 6.59375 54.828125 13.0625 64.515625 
Q 19.53125 74.21875 31.78125 74.21875 
z
" id="DejaVuSans-48"/>
       </defs>
       <use xlink:href="#DejaVuSans-48"/>
      </g>
     </g>
    </g>
    <g id="xtick_2">
     <g id="line2d_2">
      <g>
       <use style="stroke:#000000;stroke-width:0.8;" x="123.863845" xlink:href="#m5654287491" y="252"/>
      </g>
     </g>
     <g id="text_2">
      <!-- 100 -->
      <g transform="translate(114.320095 266.598437)scale(0.1 -0.1)">
       <defs>
        <path d="M 12.40625 8.296875 
L 28.515625 8.296875 
L 28.515625 63.921875 
L 10.984375 60.40625 
L 10.984375 69.390625 
L 28.421875 72.90625 
L 38.28125 72.90625 
L 38.28125 8.296875 
L 54.390625 8.296875 
L 54.390625 0 
L 12.40625 0 
z
" id="DejaVuSans-49"/>
       </defs>
       <use xlink:href="#DejaVuSans-49"/>
       <use x="63.623047" xlink:href="#DejaVuSans-48"/>
       <use x="127.246094" xlink:href="#DejaVuSans-48"/>
      </g>
     </g>
    </g>
    <g id="xtick_3">
     <g id="line2d_3">
      <g>
       <use style="stroke:#000000;stroke-width:0.8;" x="187.405314" xlink:href="#m5654287491" y="252"/>
      </g>
     </g>
     <g id="text_3">
      <!-- 200 -->
      <g transform="translate(177.861564 266.598437)scale(0.1 -0.1)">
       <defs>
        <path d="M 19.1875 8.296875 
L 53.609375 8.296875 
L 53.609375 0 
L 7.328125 0 
L 7.328125 8.296875 
Q 12.9375 14.109375 22.625 23.890625 
Q 32.328125 33.6875 34.8125 36.53125 
Q 39.546875 41.84375 41.421875 45.53125 
Q 43.3125 49.21875 43.3125 52.78125 
Q 43.3125 58.59375 39.234375 62.25 
Q 35.15625 65.921875 28.609375 65.921875 
Q 23.96875 65.921875 18.8125 64.3125 
Q 13.671875 62.703125 7.8125 59.421875 
L 7.8125 69.390625 
Q 13.765625 71.78125 18.9375 73 
Q 24.125 74.21875 28.421875 74.21875 
Q 39.75 74.21875 46.484375 68.546875 
Q 53.21875 62.890625 53.21875 53.421875 
Q 53.21875 48.921875 51.53125 44.890625 
Q 49.859375 40.875 45.40625 35.40625 
Q 44.1875 33.984375 37.640625 27.21875 
Q 31.109375 20.453125 19.1875 8.296875 
z
" id="DejaVuSans-50"/>
       </defs>
       <use xlink:href="#DejaVuSans-50"/>
       <use x="63.623047" xlink:href="#DejaVuSans-48"/>
       <use x="127.246094" xlink:href="#DejaVuSans-48"/>
      </g>
     </g>
    </g>
    <g id="xtick_4">
     <g id="line2d_4">
      <g>
       <use style="stroke:#000000;stroke-width:0.8;" x="250.946783" xlink:href="#m5654287491" y="252"/>
      </g>
     </g>
     <g id="text_4">
      <!-- 300 -->
      <g transform="translate(241.403033 266.598437)scale(0.1 -0.1)">
       <defs>
        <path d="M 40.578125 39.3125 
Q 47.65625 37.796875 51.625 33 
Q 55.609375 28.21875 55.609375 21.1875 
Q 55.609375 10.40625 48.1875 4.484375 
Q 40.765625 -1.421875 27.09375 -1.421875 
Q 22.515625 -1.421875 17.65625 -0.515625 
Q 12.796875 0.390625 7.625 2.203125 
L 7.625 11.71875 
Q 11.71875 9.328125 16.59375 8.109375 
Q 21.484375 6.890625 26.8125 6.890625 
Q 36.078125 6.890625 40.9375 10.546875 
Q 45.796875 14.203125 45.796875 21.1875 
Q 45.796875 27.640625 41.28125 31.265625 
Q 36.765625 34.90625 28.71875 34.90625 
L 20.21875 34.90625 
L 20.21875 43.015625 
L 29.109375 43.015625 
Q 36.375 43.015625 40.234375 45.921875 
Q 44.09375 48.828125 44.09375 54.296875 
Q 44.09375 59.90625 40.109375 62.90625 
Q 36.140625 65.921875 28.71875 65.921875 
Q 24.65625 65.921875 20.015625 65.03125 
Q 15.375 64.15625 9.8125 62.3125 
L 9.8125 71.09375 
Q 15.4375 72.65625 20.34375 73.4375 
Q 25.25 74.21875 29.59375 74.21875 
Q 40.828125 74.21875 47.359375 69.109375 
Q 53.90625 64.015625 53.90625 55.328125 
Q 53.90625 49.265625 50.4375 45.09375 
Q 46.96875 40.921875 40.578125 39.3125 
z
" id="DejaVuSans-51"/>
       </defs>
       <use xlink:href="#DejaVuSans-51"/>
       <use x="63.623047" xlink:href="#DejaVuSans-48"/>
       <use x="127.246094" xlink:href="#DejaVuSans-48"/>
      </g>
     </g>
    </g>
    <g id="xtick_5">
     <g id="line2d_5">
      <g>
       <use style="stroke:#000000;stroke-width:0.8;" x="314.488252" xlink:href="#m5654287491" y="252"/>
      </g>
     </g>
     <g id="text_5">
      <!-- 400 -->
      <g transform="translate(304.944502 266.598437)scale(0.1 -0.1)">
       <defs>
        <path d="M 37.796875 64.3125 
L 12.890625 25.390625 
L 37.796875 25.390625 
z
M 35.203125 72.90625 
L 47.609375 72.90625 
L 47.609375 25.390625 
L 58.015625 25.390625 
L 58.015625 17.1875 
L 47.609375 17.1875 
L 47.609375 0 
L 37.796875 0 
L 37.796875 17.1875 
L 4.890625 17.1875 
L 4.890625 26.703125 
z
" id="DejaVuSans-52"/>
       </defs>
       <use xlink:href="#DejaVuSans-52"/>
       <use x="63.623047" xlink:href="#DejaVuSans-48"/>
       <use x="127.246094" xlink:href="#DejaVuSans-48"/>
      </g>
     </g>
    </g>
    <g id="xtick_6">
     <g id="line2d_6">
      <g>
       <use style="stroke:#000000;stroke-width:0.8;" x="378.029721" xlink:href="#m5654287491" y="252"/>
      </g>
     </g>
     <g id="text_6">
      <!-- 500 -->
      <g transform="translate(368.485971 266.598437)scale(0.1 -0.1)">
       <defs>
        <path d="M 10.796875 72.90625 
L 49.515625 72.90625 
L 49.515625 64.59375 
L 19.828125 64.59375 
L 19.828125 46.734375 
Q 21.96875 47.46875 24.109375 47.828125 
Q 26.265625 48.1875 28.421875 48.1875 
Q 40.625 48.1875 47.75 41.5 
Q 54.890625 34.8125 54.890625 23.390625 
Q 54.890625 11.625 47.5625 5.09375 
Q 40.234375 -1.421875 26.90625 -1.421875 
Q 22.3125 -1.421875 17.546875 -0.640625 
Q 12.796875 0.140625 7.71875 1.703125 
L 7.71875 11.625 
Q 12.109375 9.234375 16.796875 8.0625 
Q 21.484375 6.890625 26.703125 6.890625 
Q 35.15625 6.890625 40.078125 11.328125 
Q 45.015625 15.765625 45.015625 23.390625 
Q 45.015625 31 40.078125 35.4375 
Q 35.15625 39.890625 26.703125 39.890625 
Q 22.75 39.890625 18.8125 39.015625 
Q 14.890625 38.140625 10.796875 36.28125 
z
" id="DejaVuSans-53"/>
       </defs>
       <use xlink:href="#DejaVuSans-53"/>
       <use x="63.623047" xlink:href="#DejaVuSans-48"/>
       <use x="127.246094" xlink:href="#DejaVuSans-48"/>
      </g>
     </g>
    </g>
    <g id="text_7">
     <!-- n -->
     <g transform="translate(218.23125 280.276563)scale(0.1 -0.1)">
      <defs>
       <path d="M 54.890625 33.015625 
L 54.890625 0 
L 45.90625 0 
L 45.90625 32.71875 
Q 45.90625 40.484375 42.875 44.328125 
Q 39.84375 48.1875 33.796875 48.1875 
Q 26.515625 48.1875 22.3125 43.546875 
Q 18.109375 38.921875 18.109375 30.90625 
L 18.109375 0 
L 9.078125 0 
L 9.078125 54.6875 
L 18.109375 54.6875 
L 18.109375 46.1875 
Q 21.34375 51.125 25.703125 53.5625 
Q 30.078125 56 35.796875 56 
Q 45.21875 56 50.046875 50.171875 
Q 54.890625 44.34375 54.890625 33.015625 
z
" id="DejaVuSans-110"/>
      </defs>
      <use xlink:href="#DejaVuSans-110"/>
     </g>
    </g>
   </g>
   <g id="matplotlib.axis_2">
    <g id="ytick_1">
     <g id="line2d_7">
      <defs>
       <path d="M 0 0 
L -3.5 0 
" id="m3b6e99d199" style="stroke:#000000;stroke-width:0.8;"/>
      </defs>
      <g>
       <use style="stroke:#000000;stroke-width:0.8;" x="54" xlink:href="#m3b6e99d199" y="242.13651"/>
      </g>
     </g>
     <g id="text_8">
      <!-- 0 -->
      <g transform="translate(40.6375 245.935729)scale(0.1 -0.1)">
       <use xlink:href="#DejaVuSans-48"/>
      </g>
     </g>
    </g>
    <g id="ytick_2">
     <g id="line2d_8">
      <g>
       <use style="stroke:#000000;stroke-width:0.8;" x="54" xlink:href="#m3b6e99d199" y="214.904024"/>
      </g>
     </g>
     <g id="text_9">
      <!-- 20 -->
      <g transform="translate(34.275 218.703243)scale(0.1 -0.1)">
       <use xlink:href="#DejaVuSans-50"/>
       <use x="63.623047" xlink:href="#DejaVuSans-48"/>
      </g>
     </g>
    </g>
    <g id="ytick_3">
     <g id="line2d_9">
      <g>
       <use style="stroke:#000000;stroke-width:0.8;" x="54" xlink:href="#m3b6e99d199" y="187.671537"/>
      </g>
     </g>
     <g id="text_10">
      <!-- 40 -->
      <g transform="translate(34.275 191.470756)scale(0.1 -0.1)">
       <use xlink:href="#DejaVuSans-52"/>
       <use x="63.623047" xlink:href="#DejaVuSans-48"/>
      </g>
     </g>
    </g>
    <g id="ytick_4">
     <g id="line2d_10">
      <g>
       <use style="stroke:#000000;stroke-width:0.8;" x="54" xlink:href="#m3b6e99d199" y="160.439051"/>
      </g>
     </g>
     <g id="text_11">
      <!-- 60 -->
      <g transform="translate(34.275 164.23827)scale(0.1 -0.1)">
       <defs>
        <path d="M 33.015625 40.375 
Q 26.375 40.375 22.484375 35.828125 
Q 18.609375 31.296875 18.609375 23.390625 
Q 18.609375 15.53125 22.484375 10.953125 
Q 26.375 6.390625 33.015625 6.390625 
Q 39.65625 6.390625 43.53125 10.953125 
Q 47.40625 15.53125 47.40625 23.390625 
Q 47.40625 31.296875 43.53125 35.828125 
Q 39.65625 40.375 33.015625 40.375 
z
M 52.59375 71.296875 
L 52.59375 62.3125 
Q 48.875 64.0625 45.09375 64.984375 
Q 41.3125 65.921875 37.59375 65.921875 
Q 27.828125 65.921875 22.671875 59.328125 
Q 17.53125 52.734375 16.796875 39.40625 
Q 19.671875 43.65625 24.015625 45.921875 
Q 28.375 48.1875 33.59375 48.1875 
Q 44.578125 48.1875 50.953125 41.515625 
Q 57.328125 34.859375 57.328125 23.390625 
Q 57.328125 12.15625 50.6875 5.359375 
Q 44.046875 -1.421875 33.015625 -1.421875 
Q 20.359375 -1.421875 13.671875 8.265625 
Q 6.984375 17.96875 6.984375 36.375 
Q 6.984375 53.65625 15.1875 63.9375 
Q 23.390625 74.21875 37.203125 74.21875 
Q 40.921875 74.21875 44.703125 73.484375 
Q 48.484375 72.75 52.59375 71.296875 
z
" id="DejaVuSans-54"/>
       </defs>
       <use xlink:href="#DejaVuSans-54"/>
       <use x="63.623047" xlink:href="#DejaVuSans-48"/>
      </g>
     </g>
    </g>
    <g id="ytick_5">
     <g id="line2d_11">
      <g>
       <use style="stroke:#000000;stroke-width:0.8;" x="54" xlink:href="#m3b6e99d199" y="133.206564"/>
      </g>
     </g>
     <g id="text_12">
      <!-- 80 -->
      <g transform="translate(34.275 137.005783)scale(0.1 -0.1)">
       <defs>
        <path d="M 31.78125 34.625 
Q 24.75 34.625 20.71875 30.859375 
Q 16.703125 27.09375 16.703125 20.515625 
Q 16.703125 13.921875 20.71875 10.15625 
Q 24.75 6.390625 31.78125 6.390625 
Q 38.8125 6.390625 42.859375 10.171875 
Q 46.921875 13.96875 46.921875 20.515625 
Q 46.921875 27.09375 42.890625 30.859375 
Q 38.875 34.625 31.78125 34.625 
z
M 21.921875 38.8125 
Q 15.578125 40.375 12.03125 44.71875 
Q 8.5 49.078125 8.5 55.328125 
Q 8.5 64.0625 14.71875 69.140625 
Q 20.953125 74.21875 31.78125 74.21875 
Q 42.671875 74.21875 48.875 69.140625 
Q 55.078125 64.0625 55.078125 55.328125 
Q 55.078125 49.078125 51.53125 44.71875 
Q 48 40.375 41.703125 38.8125 
Q 48.828125 37.15625 52.796875 32.3125 
Q 56.78125 27.484375 56.78125 20.515625 
Q 56.78125 9.90625 50.3125 4.234375 
Q 43.84375 -1.421875 31.78125 -1.421875 
Q 19.734375 -1.421875 13.25 4.234375 
Q 6.78125 9.90625 6.78125 20.515625 
Q 6.78125 27.484375 10.78125 32.3125 
Q 14.796875 37.15625 21.921875 38.8125 
z
M 18.3125 54.390625 
Q 18.3125 48.734375 21.84375 45.5625 
Q 25.390625 42.390625 31.78125 42.390625 
Q 38.140625 42.390625 41.71875 45.5625 
Q 45.3125 48.734375 45.3125 54.390625 
Q 45.3125 60.0625 41.71875 63.234375 
Q 38.140625 66.40625 31.78125 66.40625 
Q 25.390625 66.40625 21.84375 63.234375 
Q 18.3125 60.0625 18.3125 54.390625 
z
" id="DejaVuSans-56"/>
       </defs>
       <use xlink:href="#DejaVuSans-56"/>
       <use x="63.623047" xlink:href="#DejaVuSans-48"/>
      </g>
     </g>
    </g>
    <g id="ytick_6">
     <g id="line2d_12">
      <g>
       <use style="stroke:#000000;stroke-width:0.8;" x="54" xlink:href="#m3b6e99d199" y="105.974078"/>
      </g>
     </g>
     <g id="text_13">
      <!-- 100 -->
      <g transform="translate(27.9125 109.773297)scale(0.1 -0.1)">
       <use xlink:href="#DejaVuSans-49"/>
       <use x="63.623047" xlink:href="#DejaVuSans-48"/>
       <use x="127.246094" xlink:href="#DejaVuSans-48"/>
      </g>
     </g>
    </g>
    <g id="ytick_7">
     <g id="line2d_13">
      <g>
       <use style="stroke:#000000;stroke-width:0.8;" x="54" xlink:href="#m3b6e99d199" y="78.741591"/>
      </g>
     </g>
     <g id="text_14">
      <!-- 120 -->
      <g transform="translate(27.9125 82.54081)scale(0.1 -0.1)">
       <use xlink:href="#DejaVuSans-49"/>
       <use x="63.623047" xlink:href="#DejaVuSans-50"/>
       <use x="127.246094" xlink:href="#DejaVuSans-48"/>
      </g>
     </g>
    </g>
    <g id="ytick_8">
     <g id="line2d_14">
      <g>
       <use style="stroke:#000000;stroke-width:0.8;" x="54" xlink:href="#m3b6e99d199" y="51.509105"/>
      </g>
     </g>
     <g id="text_15">
      <!-- 140 -->
      <g transform="translate(27.9125 55.308324)scale(0.1 -0.1)">
       <use xlink:href="#DejaVuSans-49"/>
       <use x="63.623047" xlink:href="#DejaVuSans-52"/>
       <use x="127.246094" xlink:href="#DejaVuSans-48"/>
      </g>
     </g>
    </g>
    <g id="text_16">
     <!-- tiempo (ms) -->
     <g transform="translate(21.832812 173.775312)rotate(-90)scale(0.1 -0.1)">
      <defs>
       <path d="M 18.3125 70.21875 
L 18.3125 54.6875 
L 36.8125 54.6875 
L 36.8125 47.703125 
L 18.3125 47.703125 
L 18.3125 18.015625 
Q 18.3125 11.328125 20.140625 9.421875 
Q 21.96875 7.515625 27.59375 7.515625 
L 36.8125 7.515625 
L 36.8125 0 
L 27.59375 0 
Q 17.1875 0 13.234375 3.875 
Q 9.28125 7.765625 9.28125 18.015625 
L 9.28125 47.703125 
L 2.6875 47.703125 
L 2.6875 54.6875 
L 9.28125 54.6875 
L 9.28125 70.21875 
z
" id="DejaVuSans-116"/>
       <path d="M 9.421875 54.6875 
L 18.40625 54.6875 
L 18.40625 0 
L 9.421875 0 
z
M 9.421875 75.984375 
L 18.40625 75.984375 
L 18.40625 64.59375 
L 9.421875 64.59375 
z
" id="DejaVuSans-105"/>
       <path d="M 56.203125 29.59375 
L 56.203125 25.203125 
L 14.890625 25.203125 
Q 15.484375 15.921875 20.484375 11.0625 
Q 25.484375 6.203125 34.421875 6.203125 
Q 39.59375 6.203125 44.453125 7.46875 
Q 49.3125 8.734375 54.109375 11.28125 
L 54.109375 2.78125 
Q 49.265625 0.734375 44.1875 -0.34375 
Q 39.109375 -1.421875 33.890625 -1.421875 
Q 20.796875 -1.421875 13.15625 6.1875 
Q 5.515625 13.8125 5.515625 26.8125 
Q 5.515625 40.234375 12.765625 48.109375 
Q 20.015625 56 32.328125 56 
Q 43.359375 56 49.78125 48.890625 
Q 56.203125 41.796875 56.203125 29.59375 
z
M 47.21875 32.234375 
Q 47.125 39.59375 43.09375 43.984375 
Q 39.0625 48.390625 32.421875 48.390625 
Q 24.90625 48.390625 20.390625 44.140625 
Q 15.875 39.890625 15.1875 32.171875 
z
" id="DejaVuSans-101"/>
       <path d="M 52 44.1875 
Q 55.375 50.25 60.0625 53.125 
Q 64.75 56 71.09375 56 
Q 79.640625 56 84.28125 50.015625 
Q 88.921875 44.046875 88.921875 33.015625 
L 88.921875 0 
L 79.890625 0 
L 79.890625 32.71875 
Q 79.890625 40.578125 77.09375 44.375 
Q 74.3125 48.1875 68.609375 48.1875 
Q 61.625 48.1875 57.5625 43.546875 
Q 53.515625 38.921875 53.515625 30.90625 
L 53.515625 0 
L 44.484375 0 
L 44.484375 32.71875 
Q 44.484375 40.625 41.703125 44.40625 
Q 38.921875 48.1875 33.109375 48.1875 
Q 26.21875 48.1875 22.15625 43.53125 
Q 18.109375 38.875 18.109375 30.90625 
L 18.109375 0 
L 9.078125 0 
L 9.078125 54.6875 
L 18.109375 54.6875 
L 18.109375 46.1875 
Q 21.1875 51.21875 25.484375 53.609375 
Q 29.78125 56 35.6875 56 
Q 41.65625 56 45.828125 52.96875 
Q 50 49.953125 52 44.1875 
z
" id="DejaVuSans-109"/>
       <path d="M 18.109375 8.203125 
L 18.109375 -20.796875 
L 9.078125 -20.796875 
L 9.078125 54.6875 
L 18.109375 54.6875 
L 18.109375 46.390625 
Q 20.953125 51.265625 25.265625 53.625 
Q 29.59375 56 35.59375 56 
Q 45.5625 56 51.78125 48.09375 
Q 58.015625 40.1875 58.015625 27.296875 
Q 58.015625 14.40625 51.78125 6.484375 
Q 45.5625 -1.421875 35.59375 -1.421875 
Q 29.59375 -1.421875 25.265625 0.953125 
Q 20.953125 3.328125 18.109375 8.203125 
z
M 48.6875 27.296875 
Q 48.6875 37.203125 44.609375 42.84375 
Q 40.53125 48.484375 33.40625 48.484375 
Q 26.265625 48.484375 22.1875 42.84375 
Q 18.109375 37.203125 18.109375 27.296875 
Q 18.109375 17.390625 22.1875 11.75 
Q 26.265625 6.109375 33.40625 6.109375 
Q 40.53125 6.109375 44.609375 11.75 
Q 48.6875 17.390625 48.6875 27.296875 
z
" id="DejaVuSans-112"/>
       <path d="M 30.609375 48.390625 
Q 23.390625 48.390625 19.1875 42.75 
Q 14.984375 37.109375 14.984375 27.296875 
Q 14.984375 17.484375 19.15625 11.84375 
Q 23.34375 6.203125 30.609375 6.203125 
Q 37.796875 6.203125 41.984375 11.859375 
Q 46.1875 17.53125 46.1875 27.296875 
Q 46.1875 37.015625 41.984375 42.703125 
Q 37.796875 48.390625 30.609375 48.390625 
z
M 30.609375 56 
Q 42.328125 56 49.015625 48.375 
Q 55.71875 40.765625 55.71875 27.296875 
Q 55.71875 13.875 49.015625 6.21875 
Q 42.328125 -1.421875 30.609375 -1.421875 
Q 18.84375 -1.421875 12.171875 6.21875 
Q 5.515625 13.875 5.515625 27.296875 
Q 5.515625 40.765625 12.171875 48.375 
Q 18.84375 56 30.609375 56 
z
" id="DejaVuSans-111"/>
       <path id="DejaVuSans-32"/>
       <path d="M 31 75.875 
Q 24.46875 64.65625 21.28125 53.65625 
Q 18.109375 42.671875 18.109375 31.390625 
Q 18.109375 20.125 21.3125 9.0625 
Q 24.515625 -2 31 -13.1875 
L 23.1875 -13.1875 
Q 15.875 -1.703125 12.234375 9.375 
Q 8.59375 20.453125 8.59375 31.390625 
Q 8.59375 42.28125 12.203125 53.3125 
Q 15.828125 64.359375 23.1875 75.875 
z
" id="DejaVuSans-40"/>
       <path d="M 44.28125 53.078125 
L 44.28125 44.578125 
Q 40.484375 46.53125 36.375 47.5 
Q 32.28125 48.484375 27.875 48.484375 
Q 21.1875 48.484375 17.84375 46.4375 
Q 14.5 44.390625 14.5 40.28125 
Q 14.5 37.15625 16.890625 35.375 
Q 19.28125 33.59375 26.515625 31.984375 
L 29.59375 31.296875 
Q 39.15625 29.25 43.1875 25.515625 
Q 47.21875 21.78125 47.21875 15.09375 
Q 47.21875 7.46875 41.1875 3.015625 
Q 35.15625 -1.421875 24.609375 -1.421875 
Q 20.21875 -1.421875 15.453125 -0.5625 
Q 10.6875 0.296875 5.421875 2 
L 5.421875 11.28125 
Q 10.40625 8.6875 15.234375 7.390625 
Q 20.0625 6.109375 24.8125 6.109375 
Q 31.15625 6.109375 34.5625 8.28125 
Q 37.984375 10.453125 37.984375 14.40625 
Q 37.984375 18.0625 35.515625 20.015625 
Q 33.0625 21.96875 24.703125 23.78125 
L 21.578125 24.515625 
Q 13.234375 26.265625 9.515625 29.90625 
Q 5.8125 33.546875 5.8125 39.890625 
Q 5.8125 47.609375 11.28125 51.796875 
Q 16.75 56 26.8125 56 
Q 31.78125 56 36.171875 55.265625 
Q 40.578125 54.546875 44.28125 53.078125 
z
" id="DejaVuSans-115"/>
       <path d="M 8.015625 75.875 
L 15.828125 75.875 
Q 23.140625 64.359375 26.78125 53.3125 
Q 30.421875 42.28125 30.421875 31.390625 
Q 30.421875 20.453125 26.78125 9.375 
Q 23.140625 -1.703125 15.828125 -13.1875 
L 8.015625 -13.1875 
Q 14.5 -2 17.703125 9.0625 
Q 20.90625 20.125 20.90625 31.390625 
Q 20.90625 42.671875 17.703125 53.65625 
Q 14.5 64.65625 8.015625 75.875 
z
" id="DejaVuSans-41"/>
      </defs>
      <use xlink:href="#DejaVuSans-116"/>
      <use x="39.208984" xlink:href="#DejaVuSans-105"/>
      <use x="66.992188" xlink:href="#DejaVuSans-101"/>
      <use x="128.515625" xlink:href="#DejaVuSans-109"/>
      <use x="225.927734" xlink:href="#DejaVuSans-112"/>
      <use x="289.404297" xlink:href="#DejaVuSans-111"/>
      <use x="350.585938" xlink:href="#DejaVuSans-32"/>
      <use x="382.373047" xlink:href="#DejaVuSans-40"/>
      <use x="421.386719" xlink:href="#DejaVuSans-109"/>
      <use x="518.798828" xlink:href="#DejaVuSans-115"/>
      <use x="570.898438" xlink:href="#DejaVuSans-41"/>
     </g>
    </g>
   </g>
   <g id="patch_3">
    <path d="M 54 252 
L 54 34.56 
" style="fill:none;stroke:#000000;stroke-linecap:square;stroke-linejoin:miter;stroke-width:0.8;"/>
   </g>
   <g id="patch_4">
    <path d="M 388.8 252 
L 388.8 34.56 
" style="fill:none;stroke:#000000;stroke-linecap:square;stroke-linejoin:miter;stroke-width:0.8;"/>
   </g>
   <g id="patch_5">
    <path d="M 54 252 
L 388.8 252 
" style="fill:none;stroke:#000000;stroke-linecap:square;stroke-linejoin:miter;stroke-width:0.8;"/>
   </g>
   <g id="patch_6">
    <path d="M 54 34.56 
L 388.8 34.56 
" style="fill:none;stroke:#000000;stroke-linecap:square;stroke-linejoin:miter;stroke-width:0.8;"/>
   </g>
   <g id="legend_1">
    <g id="patch_7">
     <path d="M 61 71.91625 
L 129.754687 71.91625 
Q 131.754687 71.91625 131.754687 69.91625 
L 131.754687 41.56 
Q 131.754687 39.56 129.754687 39.56 
L 61 39.56 
Q 59 39.56 59 41.56 
L 59 69.91625 
Q 59 71.91625 61 71.91625 
z
" style="fill:#ffffff;opacity:0.8;stroke:#cccccc;stroke-linejoin:miter;"/>
    </g>
    <g id="PathCollection_4">
     <g>
      <use style="fill:#008000;stroke:#ffffff;stroke-width:0.48;" x="73" xlink:href="#m4ae3ad37b2" y="48.533437"/>
     </g>
    </g>
    <g id="text_17">
     <!-- O(2^n) -->
     <g transform="translate(91 51.158437)scale(0.1 -0.1)">
      <defs>
       <path d="M 39.40625 66.21875 
Q 28.65625 66.21875 22.328125 58.203125 
Q 16.015625 50.203125 16.015625 36.375 
Q 16.015625 22.609375 22.328125 14.59375 
Q 28.65625 6.59375 39.40625 6.59375 
Q 50.140625 6.59375 56.421875 14.59375 
Q 62.703125 22.609375 62.703125 36.375 
Q 62.703125 50.203125 56.421875 58.203125 
Q 50.140625 66.21875 39.40625 66.21875 
z
M 39.40625 74.21875 
Q 54.734375 74.21875 63.90625 63.9375 
Q 73.09375 53.65625 73.09375 36.375 
Q 73.09375 19.140625 63.90625 8.859375 
Q 54.734375 -1.421875 39.40625 -1.421875 
Q 24.03125 -1.421875 14.8125 8.828125 
Q 5.609375 19.09375 5.609375 36.375 
Q 5.609375 53.65625 14.8125 63.9375 
Q 24.03125 74.21875 39.40625 74.21875 
z
" id="DejaVuSans-79"/>
       <path d="M 46.6875 72.90625 
L 73.1875 45.703125 
L 63.375 45.703125 
L 41.890625 64.984375 
L 20.40625 45.703125 
L 10.59375 45.703125 
L 37.109375 72.90625 
z
" id="DejaVuSans-94"/>
      </defs>
      <use xlink:href="#DejaVuSans-79"/>
      <use x="78.710938" xlink:href="#DejaVuSans-40"/>
      <use x="117.724609" xlink:href="#DejaVuSans-50"/>
      <use x="181.347656" xlink:href="#DejaVuSans-94"/>
      <use x="265.136719" xlink:href="#DejaVuSans-110"/>
      <use x="328.515625" xlink:href="#DejaVuSans-41"/>
     </g>
    </g>
    <g id="PathCollection_5">
     <g>
      <use style="fill:#ffa500;stroke:#ffffff;stroke-width:0.48;" x="73" xlink:href="#m7c7a793d19" y="63.211562"/>
     </g>
    </g>
    <g id="text_18">
     <!-- FB -->
     <g transform="translate(91 65.836562)scale(0.1 -0.1)">
      <defs>
       <path d="M 9.8125 72.90625 
L 51.703125 72.90625 
L 51.703125 64.59375 
L 19.671875 64.59375 
L 19.671875 43.109375 
L 48.578125 43.109375 
L 48.578125 34.8125 
L 19.671875 34.8125 
L 19.671875 0 
L 9.8125 0 
z
" id="DejaVuSans-70"/>
       <path d="M 19.671875 34.8125 
L 19.671875 8.109375 
L 35.5 8.109375 
Q 43.453125 8.109375 47.28125 11.40625 
Q 51.125 14.703125 51.125 21.484375 
Q 51.125 28.328125 47.28125 31.5625 
Q 43.453125 34.8125 35.5 34.8125 
z
M 19.671875 64.796875 
L 19.671875 42.828125 
L 34.28125 42.828125 
Q 41.5 42.828125 45.03125 45.53125 
Q 48.578125 48.25 48.578125 53.8125 
Q 48.578125 59.328125 45.03125 62.0625 
Q 41.5 64.796875 34.28125 64.796875 
z
M 9.8125 72.90625 
L 35.015625 72.90625 
Q 46.296875 72.90625 52.390625 68.21875 
Q 58.5 63.53125 58.5 54.890625 
Q 58.5 48.1875 55.375 44.234375 
Q 52.25 40.28125 46.1875 39.3125 
Q 53.46875 37.75 57.5 32.78125 
Q 61.53125 27.828125 61.53125 20.40625 
Q 61.53125 10.640625 54.890625 5.3125 
Q 48.25 0 35.984375 0 
L 9.8125 0 
z
" id="DejaVuSans-66"/>
      </defs>
      <use xlink:href="#DejaVuSans-70"/>
      <use x="57.519531" xlink:href="#DejaVuSans-66"/>
     </g>
    </g>
   </g>
  </g>
 </g>
 <defs>
  <clipPath id="pc85b838b8d">
   <rect height="217.44" width="334.8" x="54" y="34.56"/>
  </clipPath>
 </defs>
</svg>
